<svg id="Icon_Set" height="512" viewBox="0 0 256 256" width="512" xmlns="http://www.w3.org/2000/svg"><g><g><g><g><path d="m113.32 43.361h29.361v15.985h-29.361z" fill="#ffd30f"/></g><g><path d="m236.96 218.524v-14.074h-217.92v14.074c0 3.65-2.959 6.609-6.609 6.609-3.65 0-6.609 2.959-6.609 6.61v14.074h244.359v-14.074c0-3.65-2.959-6.61-6.609-6.61-3.652.001-6.612-2.958-6.612-6.609z" fill="#89828f"/></g><g><path d="m250.18 231.739v14.08h-15v-14.08c0-3.65-2.96-6.61-6.61-6.61-1.83 0-3.48-.74-4.67-1.93-1.2-1.2-1.94-2.85-1.94-4.68v-14.07h15v14.07c0 1.83.74 3.48 1.94 4.68 1.19 1.19 2.84 1.93 4.67 1.93 3.65 0 6.61 2.96 6.61 6.61z" fill="#7e6e85"/></g><g><path d="m34.04 204.449v14.07c0 3.66-2.96 6.61-6.61 6.61-1.83 0-3.48.74-4.67 1.94-1.2 1.19-1.94 2.85-1.94 4.67v14.08h-15v-14.08c0-1.82.74-3.48 1.94-4.67 1.19-1.2 2.84-1.94 4.67-1.94 3.65 0 6.61-2.95 6.61-6.61v-14.07z" fill="#a4a4a6"/></g><g><path d="m236.96 183.441h-217.92c0-8.662 7.022-15.683 15.683-15.683h186.554c8.662-.001 15.683 7.021 15.683 15.683z" fill="#ffd30f"/></g><g><path d="m236.96 183.441h-217.92c0-8.662 7.022-15.683 15.683-15.683h186.554c8.662-.001 15.683 7.021 15.683 15.683z" fill="#ffd30f"/></g><g><path d="m236.96 183.439h-15c0-8.66-7.02-15.68-15.68-15.68h15c8.66 0 15.68 7.02 15.68 15.68z" fill="#ffc300"/></g><g><path d="m49.72 167.759c-4.33 0-8.25 1.76-11.09 4.59-2.83 2.84-4.59 6.76-4.59 11.09h-15c0-4.33 1.76-8.25 4.59-11.09 2.84-2.83 6.76-4.59 11.09-4.59z" fill="#ffe277"/></g><g><path d="m117.22 183.441h21.559v21.01h-21.559z" fill="#89828f"/></g><g><path d="m128 56.668c-54.332 0-98.376 44.044-98.376 98.376v12.713h196.752v-12.713c0-54.331-44.044-98.376-98.376-98.376z" fill="#ffd30f"/></g><g><path d="m226.38 155.049v12.71h-15v-12.71c0-51.82-40.05-94.27-90.88-98.09 2.48-.2 4.98-.29 7.5-.29 54.33 0 98.38 44.04 98.38 98.38z" fill="#ffc300"/></g><g><path d="m135.5 56.959c-50.83 3.82-90.88 46.27-90.88 98.09v12.71h-15v-12.71c0-54.34 44.05-98.38 98.38-98.38 2.52 0 5.02.09 7.5.29z" fill="#ffe277"/></g><g><path d="m140.826 10.183h-25.652c-4.593 0-8.317 3.724-8.317 8.317 0 4.593 3.724 8.317 8.317 8.317h25.652c4.593 0 8.317-3.724 8.317-8.317 0-4.593-3.724-8.317-8.317-8.317z" fill="#ffd30f"/></g></g></g><g fill="#5f266d"><path d="m243.57 221.134c-1.439 0-2.61-1.17-2.61-2.609v-14.075c0-2.209-1.791-4-4-4h-94.181v-13.01h94.181c2.209 0 4-1.791 4-4 0-7.571-4.302-14.146-10.584-17.437v-10.959c0-50.072-36.135-91.858-83.696-100.663v-11.02c0-2.209-1.791-4-4-4h-10.68v-8.544h8.826c6.791 0 12.316-5.525 12.316-12.316s-5.525-12.317-12.316-12.317h-25.652c-6.792 0-12.317 5.525-12.317 12.317s5.525 12.316 12.317 12.316h8.826v8.544h-10.68c-2.209 0-4 1.791-4 4v11.021c-47.561 8.805-83.696 50.591-83.696 100.663v10.959c-6.282 3.292-10.584 9.867-10.584 17.437 0 2.209 1.791 4 4 4h94.181v13.01h-94.181c-2.209 0-4 1.791-4 4v14.074c0 1.439-1.17 2.609-2.609 2.609-5.85 0-10.61 4.76-10.61 10.61v14.073c0 2.209 1.791 4 4 4h244.359c2.209 0 4-1.791 4-4v-14.073c0-5.851-4.76-10.61-10.61-10.61zm-132.713-202.634c0-2.38 1.937-4.317 4.317-4.317h25.652c2.38 0 4.316 1.937 4.316 4.317s-1.937 4.316-4.316 4.316h-25.652c-2.38.001-4.317-1.936-4.317-4.316zm6.463 28.861h21.36v5.863c-7.112-.741-14.243-.741-21.36 0zm-83.696 116.397v-8.713c0-52.04 42.337-94.376 94.376-94.376s94.376 42.337 94.376 94.376v8.713c-9.34 0-178.669 0-188.752 0zm1.099 8h186.555c5.037 0 9.341 3.205 10.978 7.683-23.075 0-185.452 0-208.51 0 1.636-4.478 5.939-7.683 10.977-7.683zm86.497 15.683h13.559v13.01h-13.559zm-98.18 21.009h209.92c.104 9.804-.239 10.415.338 12.683h-210.597c.577-2.266.234-2.841.339-12.683zm223.14 33.367h-236.36v-10.073c0-1.439 1.171-2.61 2.61-2.61h231.14c1.438 0 2.609 1.171 2.609 2.61v10.073z"/><path d="m211.081 146.957c-2.206.107-3.907 1.984-3.8 4.19.027.572.049 1.145.065 1.72.06 2.171 1.838 3.89 3.996 3.89 2.258 0 4.063-1.862 4-4.11-.017-.632-.04-1.262-.071-1.89-.107-2.206-1.963-3.907-4.19-3.8z"/><path d="m210.116 140.013c2.151-.501 3.489-2.652 2.987-4.803-3.163-13.574-9.664-26.373-18.8-37.014-1.438-1.676-3.963-1.867-5.641-.43-1.677 1.439-1.868 3.965-.43 5.641 8.301 9.668 14.207 21.294 17.079 33.619.502 2.152 2.654 3.489 4.805 2.987z"/></g></g></svg>