<?xml version="1.0" encoding="iso-8859-1"?>
<!-- Generator: Adobe Illustrator 27.2.0, SVG Export Plug-In . SVG Version: 6.00 Build 0)  -->
<svg version="1.1" id="Capa_1" xmlns="http://www.w3.org/2000/svg" xmlns:xlink="http://www.w3.org/1999/xlink" x="0px" y="0px"
	 viewBox="0 0 510 510" style="enable-background:new 0 0 510 510;" xml:space="preserve">
<g>
	<g>
		<g>
			<g>
				<polygon style="fill-rule:evenodd;clip-rule:evenodd;fill:#93B2F4;" points="152.917,500 232.591,500 227.612,455.183 
					157.896,455.183 				"/>
				<rect x="170.346" y="330.66" style="fill-rule:evenodd;clip-rule:evenodd;fill:#27A2CC;" width="44.815" height="124.606"/>
			</g>
			<g>
				<polygon style="fill-rule:evenodd;clip-rule:evenodd;fill:#93B2F4;" points="277.409,500 357.083,500 352.104,455.183 
					282.388,455.183 				"/>
				<rect x="294.838" y="330.66" style="fill-rule:evenodd;clip-rule:evenodd;fill:#27A2CC;" width="44.815" height="124.606"/>
			</g>
		</g>
		<g>
			<path style="fill-rule:evenodd;clip-rule:evenodd;fill:#67CCD1;" d="M255,10L255,10c65.732,0,119.512,53.78,119.512,119.512
				v201.18H135.488v-201.18C135.488,63.78,189.268,10,255,10z"/>
			<path style="fill-rule:evenodd;clip-rule:evenodd;fill:#D2DCFD;" d="M374.725,285.875h17.217
				c12.319,0,22.408-10.084,22.408-22.408c0-12.326-10.084-22.409-22.408-22.409h-92.125l-14.939,22.409h-59.756l-14.939-22.409
				h-92.125c-12.325,0-22.408,10.084-22.408,22.408c0,12.326,10.089,22.409,22.408,22.409h17.435v44.817h239.019
				C374.512,330.692,373.872,285.022,374.725,285.875z"/>
			<path style="fill-rule:evenodd;clip-rule:evenodd;fill:#FD7DA0;" d="M302.713,129.259l0.274-0.245
				c6.238-17.622-7.981-35.853-25.283-35.853c-9.366,0-18.021,5.042-22.704,13.227c-4.683-8.185-13.337-13.227-22.703-13.227
				c-17.303,0-29.9,17.45-24.909,35.853l0.33,0.355c-15.656-4.312-32.392,7.882-32.392,26.38c0,12.137,9.438,22.066,20.972,22.066
				h117.405c11.534,0,20.972-9.93,20.972-22.066C334.675,137.42,318.243,125.285,302.713,129.259z"/>
			<path style="fill-rule:evenodd;clip-rule:evenodd;fill:#27A2CC;" d="M178.399,143.701c0-52.839,23.257-100.241,60.085-132.547
				c-57.989,8.107-102.997,58.227-102.997,118.357v111.545h72.229C189.197,213.161,178.399,179.695,178.399,143.701z"/>
			<path style="fill:#93B2F4;" d="M118.058,241.058c-12.325,0-22.408,10.084-22.408,22.408c0,12.326,10.089,22.409,22.408,22.409
				h17.43v-44.817H118.058z"/>
			<path style="fill:#93B2F4;" d="M391.942,241.058c12.324,0,22.408,10.084,22.408,22.408c0,12.326-10.089,22.409-22.408,22.409
				h-17.43v-44.817H391.942z"/>
		</g>
	</g>
	<g>
		<path style="fill:#052A75;" d="M160.346,445.183h-2.449c-5.096,0-9.376,3.831-9.939,8.896l-4.98,44.817
			c-0.314,2.827,0.59,5.654,2.487,7.773c1.896,2.12,4.607,3.331,7.451,3.331h79.675c2.845,0,5.555-1.211,7.451-3.331
			c1.897-2.12,2.802-4.947,2.487-7.774l-4.979-44.817c-0.562-5.064-4.843-8.896-9.939-8.896h-2.45V340.692h59.678v104.491h-2.45
			c-5.096,0-9.376,3.831-9.939,8.896l-4.979,44.817c-0.314,2.827,0.59,5.654,2.487,7.774c1.896,2.119,4.607,3.331,7.451,3.331
			h79.675c2.845,0,5.555-1.211,7.451-3.331c1.897-2.119,2.802-4.946,2.487-7.773l-4.98-44.817c-0.562-5.064-4.843-8.896-9.939-8.896
			h-2.45V340.692h24.859c5.522,0,10-4.477,10-10v-34.817h7.429c5.383,0,10.459-1.327,14.931-3.659l16.401,16.675v25.091
			c-12.99,4.225-22.409,16.442-22.409,30.823c0,5.683,1.502,11.287,4.344,16.207c2.763,4.781,8.879,6.418,13.661,3.657
			c4.782-2.763,6.42-8.879,3.657-13.662c-1.088-1.882-1.662-4.026-1.662-6.202c0-6.842,5.566-12.409,12.409-12.409
			c6.842,0,12.408,5.566,12.408,12.409c0,2.175-0.574,4.321-1.662,6.204c-2.762,4.783-1.123,10.899,3.66,13.661
			c1.575,0.909,3.294,1.341,4.99,1.341c3.456,0,6.817-1.794,8.67-5.001c2.841-4.919,4.342-10.523,4.342-16.205
			c0-14.381-9.418-26.598-22.408-30.823v-29.184c0-2.624-1.031-5.142-2.87-7.012l-19.491-19.817
			c2.195-4.367,3.438-9.29,3.438-14.501c0-17.871-14.539-32.409-32.409-32.409h-7.429V129.512C384.513,58.099,326.413,0,255,0
			S125.487,58.099,125.487,129.512v101.545h-7.429c-17.87,0-32.409,14.538-32.409,32.408c0,5.35,1.311,10.396,3.616,14.848
			l-19.574,19.377c-1.897,1.878-2.965,4.437-2.965,7.107v29.184c-12.99,4.225-22.408,16.442-22.408,30.823
			c0,5.682,1.501,11.285,4.342,16.205c1.853,3.208,5.214,5.001,8.67,5.001c1.696,0,3.416-0.432,4.99-1.341
			c4.783-2.762,6.422-8.878,3.66-13.661c-1.088-1.883-1.662-4.028-1.662-6.204c0-6.842,5.566-12.409,12.408-12.409
			c6.843,0,12.409,5.566,12.409,12.409c0,2.175-0.574,4.32-1.662,6.202c-2.763,4.782-1.125,10.899,3.657,13.662
			c4.782,2.763,10.898,1.125,13.661-3.657c2.842-4.919,4.344-10.523,4.344-16.207c0-14.381-9.419-26.598-22.409-30.823V308.97
			l16.745-16.577c4.388,2.222,9.342,3.482,14.587,3.482h7.429v34.817c0,5.523,4.478,10,10,10h24.858V445.183z M145.487,129.512
			C145.487,69.127,194.614,20,255,20s109.513,49.127,109.513,109.512v101.545h-64.695c-3.344,0-6.466,1.671-8.32,4.453
			l-11.971,17.956h-49.053l-11.971-17.956c-1.854-2.782-4.977-4.453-8.32-4.453h-64.695V129.512z M118.059,275.875
			c-6.596,0-12.409-5.646-12.409-12.409c0-6.842,5.566-12.408,12.409-12.408h7.429v24.817
			C125.487,275.875,118.06,275.875,118.059,275.875z M218.661,465.183L221.418,490h-57.329l2.758-24.817H218.661z M180.346,445.183
			v-42.246h24.815v42.246H180.346z M205.161,382.938h-24.815v-42.245h24.815V382.938z M343.153,465.183L345.911,490h-57.329
			l2.757-24.817H343.153z M304.839,445.183v-42.246h24.814v42.246H304.839z M329.653,382.938h-24.814v-42.245h24.814V382.938z
			 M145.487,251.058h59.344l11.971,17.956c1.854,2.782,4.977,4.453,8.32,4.453h59.756c3.344,0,6.466-1.671,8.32-4.453l11.971-17.956
			h59.344v69.635H145.487V251.058z M384.513,275.875v-24.817h7.429c6.843,0,12.409,5.567,12.409,12.409
			c0,6.466-5.739,12.408-12.409,12.408H384.513z"/>
		<path style="fill:#052A75;" d="M180.312,275.874h-0.008c-5.523,0-9.996,4.477-9.996,10c0,5.523,4.481,10,10.004,10s10-4.477,10-10
			C190.312,280.351,185.835,275.874,180.312,275.874z"/>
		<path style="fill:#052A75;" d="M344.675,155.749c0-13.863-7.018-26.089-18.772-32.702c-3.648-2.052-7.514-3.398-11.444-4.065
			c-0.264-6.981-2.577-13.854-6.86-19.914c-7.04-9.961-18.216-15.907-29.895-15.907c-8.365,0-16.358,2.936-22.703,8.068
			c-6.344-5.131-14.337-8.068-22.703-8.068c-11.025,0-21.271,5.127-28.108,14.066c-4.816,6.296-7.479,13.804-7.854,21.636
			c-4.203,0.613-8.344,1.995-12.237,4.185c-11.755,6.613-18.773,18.838-18.773,32.702c0,17.681,13.895,32.066,30.973,32.066h117.404
			C330.78,187.815,344.675,173.43,344.675,155.749z M277.703,103.161c5.195,0,10.266,2.785,13.562,7.451
			c2.376,3.361,3.451,7.222,3.151,11.021c-1.278,0.583-2.538,1.235-3.765,1.981c-4.721,2.867-6.223,9.018-3.355,13.738
			c2.867,4.72,9.018,6.224,13.738,3.355c4.726-2.871,10.214-2.955,15.061-0.228c5.372,3.022,8.579,8.731,8.579,15.271
			c0,6.653-4.922,12.066-10.973,12.066H265V109.4C268.048,105.506,272.731,103.161,277.703,103.161z M185.325,155.749
			c0-6.54,3.207-12.249,8.579-15.271c4.847-2.726,10.334-2.642,15.062,0.228c4.72,2.867,10.871,1.365,13.738-3.355
			c2.867-4.72,1.365-10.871-3.355-13.738c-0.99-0.601-2.003-1.131-3.027-1.627c-0.263-4.61,1.027-9.045,3.753-12.608
			c3.066-4.009,7.407-6.217,12.223-6.217c4.973,0,9.655,2.345,12.703,6.239v58.416h-48.702
			C190.247,167.815,185.325,162.402,185.325,155.749z"/>
	</g>
</g>
<g>
</g>
<g>
</g>
<g>
</g>
<g>
</g>
<g>
</g>
<g>
</g>
<g>
</g>
<g>
</g>
<g>
</g>
<g>
</g>
<g>
</g>
<g>
</g>
<g>
</g>
<g>
</g>
<g>
</g>
</svg>
